<?xml version="1.0" encoding="UTF-8"?>
<svg id="Layer_2" xmlns="http://www.w3.org/2000/svg" version="1.1" viewBox="0 0 333 334.3">
  <!-- Generator: Adobe Illustrator 30.2.1, SVG Export Plug-In . SVG Version: 2.1.1 Build 1)  -->
  <defs>
    <style>
      .st0 {
        fill: #1b98d5;
      }
    </style>
  </defs>
  <g id="Layer_1-2">
    <g>
      <path class="st0" d="M333,198.8v33.3c-.5-.1-1.2.8-1.1,1.4.5,2.6-.8,4.7-1.1,7.1-.3,2-.8,3.5-1.3,5.4-.5,1.6-.7,3.1-1.3,4.7-.5,1.3-.6,2.7-1.3,4.1-.2.3-1.9,5.1-2.7,6.9l-1.3,2.7-1,2.4c-2.3,5.3-5.6,10-8.7,14.9l-1.1,1.8c-3.5,5.6-12.8,15.4-17.9,20-5.1,4.7-10.4,8.7-16.3,12.3-6.1,3.7-12.1,7-18.8,9.6-2.6,1-5.3,2.2-7.8,2.9l-4.7,1.3c-4.4,1.2-7.3,1.9-11.8,2.6-4.1.6-7.8,1.6-12.1,1-.9-.1-1.9.2-2.4,1.1h-10.2c-.5-.9-1.4-1.1-2.4-1.1-7.1.6-12.4-1.3-18.3-2.3l-3.7-.6c.1,0-7.8-2.5-8.4-2.7l-3.9-1.4c-1.1-.4-2.2-.9-3.3-1.4l-3-1.3c-3.5-1.5-10.9-5.3-13.9-7.3l-7.6-5.1c-3-2-5.8-4.3-8.5-6.8-12.1-10.8-24-25.8-30.1-40.7l-1.4-3.3c-1.2-2.9-3.3-8.2-4.1-11.2l-1.3-5.1-1.4-5.6-1.5-8.5c-.4-2.5-.2-11-.9-13.3-.2-.6.3-1.9,1.1-1.9h54.2c.9,0,1.4.8,1.4,1.6-.2,2,.1,3.8.2,5.7,0,1.6.5,2.8.8,4.3l.8,4.6,1.3,4.3,1.4,3.9,1.2,2.8c3.2,7.1,11.3,18,17.8,22.2,1.6,1,2.7,2.4,4.4,3.3,2.6,1.3,4.8,3.1,7.5,4.2,1.9.8,4.7,2,6.6,2.6l4.3,1.3c2.2.7,4.4.7,6.6,1.5,1.7.6,3.8-.1,5.6.2,2.3.4,4.4.4,6.7,0,1.8-.3,3.9.4,5.6-.2,2.3-.8,4.6-.8,6.9-1.5l4.1-1.3c8-2.6,15.9-7.5,22.3-13.2,7.2-6.4,12.3-14.8,16-23.7.7-1.8,1-3.4,1.6-5.2.5-1.6,1.1-2.8,1.1-4.6,0-2,1.1-4,1.1-6v-12.3c-1.2-2.6-.8-5.5-1.6-8.1l-1.4-4.9c-.3-1.1-2.1-5.6-2.8-6.9l-1.3-2.7c-.8-1.6-4.7-7.7-5.7-8.9l-2.6-3c-2.4-2.8-5.9-6.4-8.9-8.4-1.7-1.1-3.2-2.6-5.1-3.5-1.4-.6-2.4-1.6-3.8-2.2l-2.6-1.3-3.5-1.5-4-1.4c-1.4-.5-2.9-.9-4.4-1.2l-8.2-1.5c-2.7-.5-6.9,1-6.9-2.1v-52.5c0-2.8,4.3-1.9,6.2-1.7,2.1.3,4.2-.2,6.3.1l10.1,1.6,6.1,1.3,5,1.3c1.3.4,2.7.8,4,1.3l4,1.3c1.1.4,2.2.9,3.3,1.3l3.6,1.4c1,.4,2,1,2.9,1.4l2.7,1.4,2.8,1.4c2.4,1.2,4.7,2.6,7,4,1.2.7,2.2,1.9,3.5,2.5s2.2,1.7,3.4,2.5c6.4,4.3,13.2,11.1,18.5,16.7,4.5,4.9,11,13.8,14.1,19.6,1.2,2.2,2.5,4.2,3.6,6.4.5,1.2,1,2.2,1.6,3.4l1.3,2.7c.6,1.3,1,2.6,1.5,3.9l1.3,3.7c1.2,3.4,3.4,10.5,3.9,13.9.4,2.5,1.5,4.7,1.1,7.4,0,.6.7,1.1,1.1,1h0Z"/>
      <path class="st0" d="M215.2,0c-.4.6.6,1.1.6,1.8v53.4c0,1.5-1.5,1.8-2.5,1.8-2.2-.2-4.2.2-6.4.2h-6.7c-3.2.2-6.3,1.4-9.6,1.4-1.8,0-3.4.8-5.1,1.2-1,.2-2.1-.1-3.1.2-2,.7-3.9,1.2-6,1.4-.9,0-1.8,1.2-2.8,1.1-1.7-.2-2.9.9-4.4,1.2s-2.5.7-3.9,1.2l-4.2,1.4-3.7,1.4c-11.8,4.5-22.6,10.4-33,17.7-16.4,11.4-31.5,26.9-42.2,43.7-1.7,2.6-3.3,5-4.8,7.7l-1.6,3c-.9,1.8-1.9,3.4-2.8,5.2l-1.2,2.4-1.5,3.2-1.1,2.6-1.6,4c-.9,2.2-2,5.4-2.7,7-.6,1.4-.8,2.8-1.2,4.1-.6,1.6-1,3-1.3,4.7s-1.3,2.9-1.2,4.7c0,1.2-1.3,2.5-1.1,3.8.3,2.2-1,3.8-1.2,5.8-.4,3.4-.5,6.6-1.5,9.9,0-.2-.3,9-.4,10-.2,1.9-.5,4-.3,6,0,.8-.2,2.9-1.4,2.9H1.5c-.5,0-.9-.3-1.1-.4-.6-.3-.3-13.3,0-15.3.1-.9,1.1-1.6.9-2.8-.4-4.2.4-8.2,1.2-12.3.3-1.6-.2-3.1.4-4.6.7-1.8,1-3.7,1-5.6,0-1.6.9-3,1-4.5.2-2.1.9-3.8,1.3-5.7s.8-3.5,1.3-5.4l1.3-4.7,1.4-4.2c.5-1.5.8-2.9,1.4-4.3,1.1-2.7,1.6-4.7,2.8-7.6.5-1.2,1-2.3,1.5-3.5l1.1-2.9,1.5-3.5,1.4-2.9c.4-.9.9-1.6,1.2-2.4l1.4-3.2,1.4-2.6c.5-.9.8-1.6,1.2-2.5l1.6-3,3.1-5.4c.8-1.3,1.6-2.6,2.4-3.9l7.5-11.4,4.7-6.3,4.6-5.8c1.7-2.1,5.9-7.1,7.7-8.9l13.5-13.4c6-6,12.6-10.9,19.4-15.9l4.2-3.1,3.5-2.3c6.2-4.1,14.9-9.1,21.6-12.5l2.4-1.2c1.2-.6,2.4-.9,3.6-1.5,3.3-1.7,5.6-2.5,9-4l3.3-1.4,3.6-1.3c1.4-.5,2.6-.9,4-1.4l4.2-1.5c.7-.3,13.2-3.9,13.4-3.9l3.9-.8c1.8-.3,3.6-.6,5.2-1.2,2.5-.8,5-.9,7.5-1.5,2.9-.7,5.6-.9,8.5-1.2,5.3-.7,10.3-1.6,15.7-1,.8,0,1.7-.5,1.6-1.1h10.3,0Z"/>
    </g>
  </g>
</svg>