<?xml version="1.0" encoding="UTF-8"?>
<svg id="Layer_2" data-name="Layer 2" xmlns="http://www.w3.org/2000/svg" viewBox="0 0 369.43 66.99">
  <defs>
    <style>
      .cls-1 {
        fill: #173e6c;
      }

      .cls-2 {
        fill: #1b98d5;
      }
    </style>
  </defs>
  <g id="Layer_1-2" data-name="Layer 1">
    <g>
      <g>
        <path class="cls-1" d="M310.63,27.5c-6.91-2.37-16.5-1.46-21.26,4.34.94-6.27,5.16-10.95,10.95-12.98,5.65-1.99,11.57-1.51,17.17.65l3.84-11.68c-2.05-1.09-4.12-1.65-6.36-2.05-4.98-.63-9.8-.52-14.74.48-11.38,2.32-20.32,10.61-23.53,21.78-1.75,6.1-2.06,12.43-1.01,18.69,1.86,11.02,10.17,19.29,21.5,20.12,3.55.26,6.99.02,10.45-1,5.88-1.73,10.83-5.7,13.4-11.27,4.44-9.61.98-23.18-10.41-27.08ZM307.15,51.19c-2.23,3.12-5.99,4.14-9.55,3.59-4.6-.72-7.64-4.49-7.37-8.96.26-4.4,3.79-7.68,8.43-7.92,3.42-.18,6.77,1.06,8.67,4.04,1.74,2.73,1.79,6.49-.18,9.25Z"/>
        <path class="cls-1" d="M368.96,41.17c-2.02-11.34-13.24-15.96-23.83-14.27-2.23.47-4.04,1.33-5.95,2.61l2.29-10.72h24.33s0-12.05,0-12.05h-34.28s-6.67,30.63-6.67,30.63l12.9,4.09c2.14-2.59,5.17-3.87,8.5-3.75,2.96.05,5.69,1.27,7.47,3.62,1.74,2.78,1.85,6.24.45,9.18-1.6,2.82-4.46,4.23-7.68,4.33-5.24.16-9.34-3.6-9.71-8.8l-13.24,2.72c.13,3.06,1.16,5.71,2.76,8.19,4.43,6.52,11.72,10.17,19.77,10.03,3.24-.06,5.99-.23,8.92-1.16,7.13-2.25,12.69-8.12,14.07-15.53.57-3.07.44-6.11-.1-9.13Z"/>
        <path class="cls-1" d="M257.08,28.97l14.36-11.12V6.73s-42.55,0-42.55,0v12.04s24.36.07,24.36.07l-14.33,11.77,6.24,9.46c3.97-2.1,8.57-1.9,11.72,1.14,2.33,2.25,2.61,5.95,1.22,8.93-1.22,2.63-3.98,4.24-7.11,4.5-5.59.47-10.06-3.55-10.27-9.24l-13.86,2.55c1.05,11.44,11.28,18.84,22.31,18.83h2.19c11.89-.02,22.3-8.12,22.09-20.33-.16-9.16-6.86-16.63-16.37-17.48Z"/>
      </g>
      <g>
        <path class="cls-2" d="M43.92,19.95l-13.37,29.8L11.42,1.61H0s25.41,63.95,25.41,63.95l9.73-.06,13.47-30.09,13.27,30.13c3.91.02,7.49.1,11.54-.13l-20-45.45-9.49-.03Z"/>
        <polygon class="cls-2" points="200.7 40.12 218.76 21.53 204.77 21.45 187.85 39.22 187.85 0 177.38 0 177.39 65.57 187.84 65.55 187.86 53.26 193.25 47.53 206.25 65.56 219.09 65.39 200.7 40.12"/>
        <path class="cls-2" d="M114.97,20.29v10.58c6.91.04,12.18,5.61,12.06,12.25-.12,6.5-5.56,11.8-12.11,11.74-6.58-.06-11.84-5.3-12-12.04h-10.55c0,12.66,10.35,22.7,22.79,22.62,12.46-.08,22.59-10.26,22.5-22.72-.08-12.25-10.05-22.42-22.68-22.43Z"/>
        <path class="cls-2" d="M153.03,28.33l-.05-6.89-10.32.1v44.01s10.59,0,10.59,0l.02-22.08c0-2.02.47-3.88,1.09-5.57,2.15-5.78,8.31-6.9,14.23-6.04v-10.73c-6.18-1.14-13.11,1.47-15.56,7.2Z"/>
        <path class="cls-2" d="M114.99,12.34l.05-10.55c-22.71-.07-41.3,18.45-41.23,41.09h10.58c.11-16.8,13.53-30.41,30.61-30.54Z"/>
      </g>
    </g>
  </g>
</svg>